<?xml version="1.0" encoding="UTF-8"?>
<svg version="1.1" xmlns="http://www.w3.org/2000/svg" width="520" height="97">
<path d="M0 0 C171.6 0 343.2 0 520 0 C520 32.01 520 64.02 520 97 C348.4 97 176.8 97 0 97 C0 64.99 0 32.98 0 0 Z " fill="#04030B" transform="translate(0,0)"/>
<path d="M0 0 C1.48762093 0.00424484 1.48762093 0.00424484 3.0052948 0.00857544 C6.16381034 0.01974446 9.32203932 0.04484323 12.48046875 0.0703125 C14.62564694 0.08034653 16.77082958 0.08947164 18.91601562 0.09765625 C24.16676396 0.11967305 29.41734588 0.15311807 34.66796875 0.1953125 C34.21214366 1.6357424 33.74997331 3.0741653 33.28515625 4.51171875 C33.02847168 5.31295166 32.77178711 6.11418457 32.50732422 6.93969727 C31.05109741 10.85304208 29.17546995 13.45968051 25.40307617 15.30053711 C22.40714964 16.28063804 19.9284693 16.49602228 16.78125 16.57421875 C15.12706055 16.62545898 15.12706055 16.62545898 13.43945312 16.67773438 C11.72725586 16.71737305 11.72725586 16.71737305 9.98046875 16.7578125 C7.70561949 16.81757657 5.43086682 16.88118036 3.15625 16.94921875 C2.15118408 16.97314697 1.14611816 16.9970752 0.1105957 17.02172852 C-2.33872814 17.03920823 -2.33872814 17.03920823 -4.33203125 18.1953125 C-4.99203125 20.5053125 -5.65203125 22.8153125 -6.33203125 25.1953125 C0.59796875 25.1953125 7.52796875 25.1953125 14.66796875 25.1953125 C10.32909141 38.21194452 10.32909141 38.21194452 4.375 41.4375 C0.94870887 42.39666375 -2.09170972 42.38672038 -5.64453125 42.3203125 C-7.52591797 42.29324219 -7.52591797 42.29324219 -9.4453125 42.265625 C-10.87423828 42.23082031 -10.87423828 42.23082031 -12.33203125 42.1953125 C-12.43515625 43.4121875 -12.53828125 44.6290625 -12.64453125 45.8828125 C-13.29006884 51.02892908 -15.31237071 54.84559538 -19.33203125 58.1953125 C-22.48134018 59.24508214 -24.72017581 59.29662845 -28.01953125 59.2578125 C-29.01339844 59.24878906 -30.00726563 59.23976562 -31.03125 59.23046875 C-32.17013672 59.21306641 -32.17013672 59.21306641 -33.33203125 59.1953125 C-32.34805743 52.7952309 -30.72909374 46.58403745 -29.11328125 40.32202148 C-28.5919049 38.29617724 -28.07893448 36.26833233 -27.56640625 34.24023438 C-25.82983183 27.43913419 -23.95703154 20.68971676 -21.81640625 14.00390625 C-21.24744629 12.22004517 -21.24744629 12.22004517 -20.66699219 10.40014648 C-18.93290359 6.23712874 -17.10900971 3.29337344 -13.2277832 0.89501953 C-8.82093317 -0.16981751 -4.51644293 -0.04863916 0 0 Z " fill="#9158F5" transform="translate(75.33203125,16.8046875)"/>
<path d="M0 0 C0.33 0.66 0.66 1.32 1 2 C7.93 2 14.86 2 22 2 C17.66112266 15.01663202 17.66112266 15.01663202 11.70703125 18.2421875 C8.28074012 19.20135125 5.24032153 19.19140788 1.6875 19.125 C0.43324219 19.10695313 -0.82101563 19.08890625 -2.11328125 19.0703125 C-3.06589844 19.04710938 -4.01851562 19.02390625 -5 19 C-5.103125 20.216875 -5.20625 21.43375 -5.3125 22.6875 C-5.95803759 27.83361658 -7.98033946 31.65028288 -12 35 C-15.14930893 36.04976964 -17.38814456 36.10131595 -20.6875 36.0625 C-21.68136719 36.05347656 -22.67523438 36.04445312 -23.69921875 36.03515625 C-24.83810547 36.01775391 -24.83810547 36.01775391 -26 36 C-25.13949945 29.98686361 -23.66076292 24.1357402 -22.1875 18.25 C-21.93935547 17.19683594 -21.69121094 16.14367187 -21.43554688 15.05859375 C-21.18224609 14.05441406 -20.92894531 13.05023438 -20.66796875 12.015625 C-20.44391357 11.10071289 -20.2198584 10.18580078 -19.98901367 9.24316406 C-19 7 -19 7 -17.0637207 5.78808594 C-16.38269287 5.52801758 -15.70166504 5.26794922 -15 5 C-14.113125 4.46375 -13.22625 3.9275 -12.3125 3.375 C-8.07692821 1.61683813 -4.51839191 1.72889649 0 2 C0 1.34 0 0.68 0 0 Z " fill="#433DCD" transform="translate(68,40)"/>
<path d="M0 0 C0.91644287 0.00523682 1.83288574 0.01047363 2.77709961 0.01586914 C3.76645508 0.0190918 4.75581055 0.02231445 5.77514648 0.02563477 C6.81606445 0.03401367 7.85698242 0.04239258 8.92944336 0.05102539 C10.49662109 0.05779297 10.49662109 0.05779297 12.09545898 0.06469727 C14.68600996 0.07652627 17.27644895 0.0930085 19.86694336 0.11352539 C19.94150285 4.13361996 19.99573694 8.15344272 20.03173828 12.17407227 C20.04675764 13.53970355 20.06717944 14.90528716 20.09326172 16.27075195 C20.12994472 18.24156444 20.14512887 20.21273947 20.15991211 22.18383789 C20.17562256 23.3673584 20.19133301 24.55087891 20.20751953 25.77026367 C19.73042469 30.45365923 18.19471096 33.78575779 14.86694336 37.11352539 C12.62036133 37.34057617 12.62036133 37.34057617 9.85913086 37.30883789 C8.87299805 37.30239258 7.88686523 37.29594727 6.87084961 37.28930664 C5.83831055 37.27254883 4.80577148 37.25579102 3.74194336 37.23852539 C2.70166992 37.22950195 1.66139648 37.22047852 0.58959961 37.21118164 C-1.98484756 37.18756286 -4.55883876 37.15462688 -7.13305664 37.11352539 C-7.13305664 35.46352539 -7.13305664 33.81352539 -7.13305664 32.11352539 C-1.19305664 31.78352539 4.74694336 31.45352539 10.86694336 31.11352539 C11.52694336 29.46352539 12.18694336 27.81352539 12.86694336 26.11352539 C12.20694336 26.44352539 11.54694336 26.77352539 10.86694336 27.11352539 C-0.42841648 28.05935262 -0.42841648 28.05935262 -5.13305664 24.11352539 C-8.53284614 20.71373589 -8.35510843 16.84094585 -8.50805664 12.17602539 C-8.48810893 6.72365135 -8.48810893 6.72365135 -7.05102539 4.25415039 C-5.69555664 2.92602539 -5.69555664 2.92602539 -3.13305664 1.11352539 C-2.13305664 0.11352539 -2.13305664 0.11352539 0 0 Z " fill="#D6D5D6" transform="translate(271.133056640625,35.886474609375)"/>
<path d="M0 0 C0.75539062 -0.03287109 1.51078125 -0.06574219 2.2890625 -0.09960938 C6.57553322 -0.14082544 8.14231199 0.04792897 11.6015625 2.83984375 C14.63544314 6.73469051 14.80822386 8.83638872 14.875 13.75 C14.90078125 14.88050781 14.9265625 16.01101562 14.953125 17.17578125 C14.58614293 20.82375778 13.93243144 22.60337226 11.625 25.4375 C7.72566541 27.67826345 4.06262916 27.73565422 -0.375 27.75 C-1.57125 27.76675781 -2.7675 27.78351562 -4 27.80078125 C-7.67075679 27.40566507 -9.49541403 26.71545819 -12.375 24.4375 C-14.75487325 21.15169313 -14.67371287 17.97528941 -14.6875 14 C-14.70425781 12.88753906 -14.72101563 11.77507813 -14.73828125 10.62890625 C-14.33535875 7.08925379 -13.50473576 5.26550977 -11.375 2.4375 C-7.57157756 -0.09811496 -4.41240897 0.03354027 0 0 Z " fill="#E5E5E5" transform="translate(223.375,35.5625)"/>
<path d="M0 0 C2.64 0 5.28 0 8 0 C8.33 9.57 8.66 19.14 9 29 C11.78601223 29.92867074 13.61066089 30.16342217 16.5 30.1875 C17.66015625 30.20876953 17.66015625 30.20876953 18.84375 30.23046875 C21.29680056 30.13661528 21.29680056 30.13661528 24 28 C24.51146198 25.09386566 24.51146198 25.09386566 24.51171875 21.6796875 C24.54716797 20.42285156 24.58261719 19.16601562 24.61914062 17.87109375 C24.64169922 16.55238281 24.66425781 15.23367187 24.6875 13.875 C24.72066529 12.53512241 24.75515422 11.19527689 24.79101562 9.85546875 C24.87373327 6.5703967 24.94280693 3.28559968 25 0 C27.64 0 30.28 0 33 0 C33.05815112 4.39577761 33.09364767 8.79145598 33.125 13.1875 C33.14175781 14.43337891 33.15851563 15.67925781 33.17578125 16.96289062 C33.18544922 18.7659668 33.18544922 18.7659668 33.1953125 20.60546875 C33.21102295 22.26292114 33.21102295 22.26292114 33.22705078 23.95385742 C32.88328232 28.56589948 31.94879868 31.14608119 28.5 34.25 C24.37441571 37.137909 21.80941663 37.21825596 16.75 37.3125 C15.44546875 37.34988281 14.1409375 37.38726562 12.796875 37.42578125 C8.34824426 36.92691216 6.36026086 35.92808858 3 33 C0.39611005 28.67533202 -0.36470233 25.529163 -0.29296875 20.5078125 C-0.28330078 19.30898438 -0.27363281 18.11015625 -0.26367188 16.875 C-0.23853516 15.6375 -0.21339844 14.4 -0.1875 13.125 C-0.17396484 11.86429688 -0.16042969 10.60359375 -0.14648438 9.3046875 C-0.11123435 6.20268546 -0.06195504 3.10156466 0 0 Z " fill="#744ADD" transform="translate(331,26)"/>
<path d="M0 0 C0.70769531 -0.03287109 1.41539062 -0.06574219 2.14453125 -0.09960938 C6.18449302 -0.14098701 7.90499919 0.25805637 11.0703125 2.83984375 C15.2292094 8.09776474 14.125 8.01245344 14.125 16.4375 C7.195 16.4375 0.265 16.4375 -6.875 16.4375 C-6.215 17.7575 -5.555 19.0775 -4.875 20.4375 C1.065 20.7675 7.005 21.0975 13.125 21.4375 C13.125 23.4175 13.125 25.3975 13.125 27.4375 C9.87507554 27.49569424 6.62528565 27.53116116 3.375 27.5625 C2.45460938 27.57925781 1.53421875 27.59601562 0.5859375 27.61328125 C-0.74824219 27.62294922 -0.74824219 27.62294922 -2.109375 27.6328125 C-3.33479004 27.64852295 -3.33479004 27.64852295 -4.58496094 27.66455078 C-7.14176525 27.41105099 -8.70161359 26.79007687 -10.875 25.4375 C-13.83475572 21.63401301 -14.28336906 18.6981528 -14.25 13.9375 C-14.25773437 12.8340625 -14.26546875 11.730625 -14.2734375 10.59375 C-13.83184765 7.09566573 -12.97840582 5.24204109 -10.875 2.4375 C-7.18796857 -0.02052095 -4.27325909 0.03464805 0 0 Z " fill="#DDDDDD" transform="translate(309.875,35.5625)"/>
<path d="M0 0 C0.93457031 0.00966797 1.86914062 0.01933594 2.83203125 0.02929688 C3.80011719 0.05443359 4.76820313 0.07957031 5.765625 0.10546875 C7.24095703 0.12577148 7.24095703 0.12577148 8.74609375 0.14648438 C11.16982915 0.18178149 13.59244645 0.23108821 16.015625 0.29296875 C16.015625 2.27296875 16.015625 4.25296875 16.015625 6.29296875 C14.20964844 6.38384766 14.20964844 6.38384766 12.3671875 6.4765625 C10.79165423 6.56096607 9.21613404 6.64561416 7.640625 6.73046875 C6.8465625 6.76978516 6.0525 6.80910156 5.234375 6.84960938 C0.98961279 6.98190279 0.98961279 6.98190279 -2.984375 8.29296875 C-3.314375 10.93296875 -3.644375 13.57296875 -3.984375 16.29296875 C1.955625 16.29296875 7.895625 16.29296875 14.015625 16.29296875 C14.015625 18.27296875 14.015625 20.25296875 14.015625 22.29296875 C8.075625 22.29296875 2.135625 22.29296875 -3.984375 22.29296875 C-3.984375 27.24296875 -3.984375 32.19296875 -3.984375 37.29296875 C-6.624375 37.29296875 -9.264375 37.29296875 -11.984375 37.29296875 C-12.0588139 33.25456305 -12.11311229 29.21642582 -12.14916992 25.17749023 C-12.16420932 23.80502358 -12.18464633 22.43260461 -12.21069336 21.06030273 C-12.24728721 19.08208219 -12.26254198 17.10350361 -12.27734375 15.125 C-12.30090942 13.34186401 -12.30090942 13.34186401 -12.32495117 11.52270508 C-11.85162336 7.03406453 -10.33652536 4.5861693 -7.10839844 1.4987793 C-4.53684515 0.03890554 -2.94315739 -0.05383825 0 0 Z " fill="#EFEFEF" transform="translate(190.984375,25.70703125)"/>
<path d="M0 0 C0.99 0 1.98 0 3 0 C3 9.9 3 19.8 3 30 C-10 30 -10 30 -14 27 C-15.7678002 21.69659939 -15.92680499 16.06424747 -13.625 10.9375 C-12 9 -12 9 -10 8 C-8.125 7.8671875 -8.125 7.8671875 -6 7.875 C-4.948125 7.87113281 -4.948125 7.87113281 -3.875 7.8671875 C-2 8 -2 8 0 9 C0 6.03 0 3.06 0 0 Z " fill="#C1C1C2" transform="translate(474,33)"/>
<path d="M0 0 C3.56069065 2.70612489 4.66536439 4.10976102 5.43359375 8.44921875 C5.64580241 12.75126703 5.40776602 15.31101604 3.1875 19.0625 C0.33038355 21.59308886 -1.59124318 21.96215215 -5.375 22.3125 C-9.62297762 21.94629503 -11.10172388 21.06876295 -14 18 C-15.89735851 13.76743102 -15.44690391 8.54697509 -14.1875 4.1875 C-11.20620283 -1.3043632 -5.48840434 -0.96134471 0 0 Z " fill="#8C8C8D" transform="translate(506,41)"/>
<path d="M0 0 C1.16273437 -0.02578125 2.32546875 -0.0515625 3.5234375 -0.078125 C6.94818298 0.28419064 7.50176411 0.72664062 9.625 3.25 C12.73339021 3.9769226 12.73339021 3.9769226 15.625 4.25 C15.625 6.23 15.625 8.21 15.625 10.25 C13.8125 10.9375 13.8125 10.9375 11.625 11.25 C8.882453 9.32005952 8.26550874 7.45254368 7.625 4.25 C5.81384044 2.43884044 3.01221773 2.86800552 0.5625 2.6875 C-0.54222656 2.60371094 -1.64695312 2.51992188 -2.78515625 2.43359375 C-3.63980469 2.37300781 -4.49445313 2.31242187 -5.375 2.25 C-5.34881592 2.88502441 -5.32263184 3.52004883 -5.2956543 4.17431641 C-5.19119605 7.07428878 -5.12652253 9.9738647 -5.0625 12.875 C-5.02060547 13.87402344 -4.97871094 14.87304688 -4.93554688 15.90234375 C-4.79734455 24.24976393 -4.79734455 24.24976393 -7.64453125 27.8984375 C-11.88966088 31.55447189 -15.30546213 31.37841788 -20.80834961 31.41113281 C-22.76574318 31.42554413 -22.76574318 31.42554413 -24.76268005 31.44024658 C-26.18423284 31.4450941 -27.60578765 31.44937304 -29.02734375 31.453125 C-30.48938498 31.45888038 -31.9514262 31.46463806 -33.41346741 31.47039795 C-36.47576243 31.4808896 -39.53803134 31.48674464 -42.6003418 31.49023438 C-46.51891221 31.49572328 -50.4371359 31.51976716 -54.3555975 31.54820633 C-57.37452702 31.56685176 -60.39337319 31.57203925 -63.41235542 31.57357025 C-64.85681624 31.57659169 -66.30127576 31.5846031 -67.74567986 31.59775543 C-69.76780161 31.61485809 -71.79006711 31.61108477 -73.81225586 31.60644531 C-75.53622841 31.61191376 -75.53622841 31.61191376 -77.29502869 31.61749268 C-81.52543047 31.11273419 -84.09605906 29.43738985 -87.17578125 26.578125 C-88.95023821 23.1332509 -88.6925237 19.7740212 -88.5625 16 C-88.54896484 15.25492188 -88.53542969 14.50984375 -88.52148438 13.7421875 C-88.48627204 11.91114584 -88.43246851 10.08047831 -88.375 8.25 C-88.045 8.25 -87.715 8.25 -87.375 8.25 C-87.36082031 9.27480469 -87.34664062 10.29960938 -87.33203125 11.35546875 C-87.28510984 12.71618971 -87.23686256 14.07686541 -87.1875 15.4375 C-87.18169922 16.11103516 -87.17589844 16.78457031 -87.16992188 17.47851562 C-87.00928981 21.137357 -86.53435157 23.04703572 -84.25819397 25.94615173 C-80.72568948 28.76883881 -79.01341231 28.87752349 -74.53686523 28.88110352 C-73.8695639 28.88825882 -73.20226257 28.89541412 -72.51473999 28.90278625 C-70.32031719 28.91962483 -68.12795143 28.90030534 -65.93359375 28.87890625 C-64.40332368 28.87973532 -62.87305371 28.88219613 -61.3427887 28.88621521 C-58.14076835 28.88906972 -54.93944886 28.87440552 -51.73754883 28.84692383 C-47.63594021 28.81281164 -43.53558204 28.81887149 -39.43391323 28.8375864 C-36.27596128 28.84816011 -33.11829978 28.83921593 -29.96037483 28.82420158 C-28.44812953 28.8190239 -26.93585385 28.81949659 -25.42361259 28.82574654 C-23.30965918 28.83120485 -21.19749018 28.81080988 -19.08374023 28.78344727 C-17.88192612 28.77724869 -16.680112 28.77105011 -15.44187927 28.7646637 C-11.77917723 28.1500129 -10.59481825 27.17431523 -8.375 24.25 C-7.75547282 21.67138135 -7.75547282 21.67138135 -7.80078125 18.86328125 C-7.77306641 17.84298828 -7.74535156 16.82269531 -7.71679688 15.77148438 C-7.70712891 14.71251953 -7.69746094 13.65355469 -7.6875 12.5625 C-7.64561624 10.45435056 -7.60023937 8.34626659 -7.55078125 6.23828125 C-7.53958252 5.30540283 -7.52838379 4.37252441 -7.5168457 3.41137695 C-7.21958716 -1.11810652 -3.83292018 0.05076715 0 0 Z " fill="#343391" transform="translate(123.375,54.75)"/>
<path d="M0 0 C2.31 0 4.62 0 7 0 C7 12.21 7 24.42 7 37 C4.69 37 2.38 37 0 37 C0 24.79 0 12.58 0 0 Z " fill="#784EE2" transform="translate(372,26)"/>
<path d="M0 0 C0.99 0.66 1.98 1.32 3 2 C3 2.99 3 3.98 3 5 C2.08476562 4.91621094 1.16953125 4.83242188 0.2265625 4.74609375 C-0.96195312 4.64425781 -2.15046875 4.54242188 -3.375 4.4375 C-4.55835938 4.33308594 -5.74171875 4.22867188 -6.9609375 4.12109375 C-9.91898631 3.75846404 -9.91898631 3.75846404 -12 5 C-12 6.98 -12 8.96 -12 11 C-10.66195313 11.36351562 -10.66195313 11.36351562 -9.296875 11.734375 C-8.12640625 12.06953125 -6.9559375 12.4046875 -5.75 12.75 C-4.58984375 13.07484375 -3.4296875 13.3996875 -2.234375 13.734375 C1.12728574 15.04980746 2.78233898 16.18486234 5 19 C5.66354848 22.89834732 5.33947149 24.47323389 3.1875 27.8125 C0.02404501 30.97595499 -2.58058876 31.1548677 -6.875 31.1875 C-10.68003233 31.15968544 -13.58143244 30.82323603 -17 29 C-16.67 27.68 -16.34 26.36 -16 25 C-15.154375 25.33 -14.30875 25.66 -13.4375 26 C-9.73572148 27.07688102 -6.83569019 27.28948605 -3 27 C-2.01 26.34 -1.02 25.68 0 25 C0.25030977 22.41619823 0.25030977 22.41619823 0 20 C-3.74193264 18.36290447 -7.45192004 16.83391154 -11.3125 15.5 C-15 14 -15 14 -17 11 C-17.2204354 8.19651384 -16.83248363 5.68182645 -16 3 C-12.00106426 -1.26553146 -5.4595576 -0.65075222 0 0 Z " fill="#D4D3D4" transform="translate(413,32)"/>
<path d="M0 0 C1.16144531 0.04511719 2.32289063 0.09023438 3.51953125 0.13671875 C4.84017578 0.22373047 4.84017578 0.22373047 6.1875 0.3125 C6.1875 2.2925 6.1875 4.2725 6.1875 6.3125 C5.23037109 6.40337891 5.23037109 6.40337891 4.25390625 6.49609375 C3.42761719 6.57988281 2.60132813 6.66367187 1.75 6.75 C0.51443359 6.87181641 0.51443359 6.87181641 -0.74609375 6.99609375 C-2.79912025 7.10180815 -2.79912025 7.10180815 -3.8125 8.3125 C-3.96870555 9.72577947 -4.06306173 11.1460459 -4.12890625 12.56640625 C-4.17080078 13.42041016 -4.21269531 14.27441406 -4.25585938 15.15429688 C-4.31483398 16.50104492 -4.31483398 16.50104492 -4.375 17.875 C-4.41818359 18.77669922 -4.46136719 19.67839844 -4.50585938 20.60742188 C-4.61228142 22.84228485 -4.71429988 25.07726308 -4.8125 27.3125 C-7.1225 27.3125 -9.4325 27.3125 -11.8125 27.3125 C-11.95817407 23.75043278 -12.04669196 20.18913449 -12.125 16.625 C-12.16689453 15.61759766 -12.20878906 14.61019531 -12.25195312 13.57226562 C-12.3299887 8.84330969 -12.36345193 6.15126264 -9.71875 2.125 C-6.17440532 -0.08545152 -4.14308797 -0.20924687 0 0 Z " fill="#EAEAEA" transform="translate(254.8125,35.6875)"/>
<path d="M0 0 C2.53125 -0.3984375 2.53125 -0.3984375 5.5 -0.375 C6.4796875 -0.38273437 7.459375 -0.39046875 8.46875 -0.3984375 C9.72171875 -0.20121094 9.72171875 -0.20121094 11 0 C13.08133467 3.122002 13.2737822 3.93266989 13.25 7.5 C13.25515625 8.2734375 13.2603125 9.046875 13.265625 9.84375 C13 12 13 12 11 15 C8.46875 15.3984375 8.46875 15.3984375 5.5 15.375 C4.5203125 15.38273437 3.540625 15.39046875 2.53125 15.3984375 C1.6959375 15.26695313 0.860625 15.13546875 0 15 C-2.08133467 11.877998 -2.2737822 11.06733011 -2.25 7.5 C-2.25773438 6.33984375 -2.25773438 6.33984375 -2.265625 5.15625 C-2 3 -2 3 0 0 Z " fill="#07070D" transform="translate(218,42)"/>
<path d="M0 0 C1.09054687 0.02320313 2.18109375 0.04640625 3.3046875 0.0703125 C4.40039062 0.08835938 5.49609375 0.10640625 6.625 0.125 C7.46804688 0.14820313 8.31109375 0.17140625 9.1796875 0.1953125 C9.20654162 2.50775042 9.22601591 4.8202752 9.2421875 7.1328125 C9.25378906 8.42058594 9.26539063 9.70835938 9.27734375 11.03515625 C9.1796875 14.1953125 9.1796875 14.1953125 8.1796875 15.1953125 C6.32681248 15.26757752 4.47134872 15.2791247 2.6171875 15.2578125 C1.60527344 15.24878906 0.59335937 15.23976563 -0.44921875 15.23046875 C-1.23167969 15.21886719 -2.01414062 15.20726562 -2.8203125 15.1953125 C-4.54293285 12.20123427 -5.09337273 10.01781657 -5.0703125 6.5703125 C-5.07546875 5.79429688 -5.080625 5.01828125 -5.0859375 4.21875 C-4.63334088 0.77102871 -3.32763067 0.23044534 0 0 Z " fill="#0D0C12" transform="translate(274.8203125,41.8046875)"/>
<path d="M0 0 C0.70125 0.00515625 1.4025 0.0103125 2.125 0.015625 C2.82625 0.01046875 3.5275 0.0053125 4.25 0 C6.125 0.265625 6.125 0.265625 8.125 2.265625 C8.42578125 4.76171875 8.42578125 4.76171875 8.4375 7.703125 C8.46263672 9.15525391 8.46263672 9.15525391 8.48828125 10.63671875 C8.125 13.265625 8.125 13.265625 6.79296875 15.09375 C4.22628116 16.89704339 2.17281843 16.58310609 -0.875 16.265625 C-1.865 15.605625 -2.855 14.945625 -3.875 14.265625 C-4.23828125 11.515625 -4.23828125 11.515625 -4.1875 8.265625 C-4.18363281 7.193125 -4.17976563 6.120625 -4.17578125 5.015625 C-3.83124436 1.86557344 -3.30355526 0.46800366 0 0 Z " fill="#07060D" transform="translate(498.875,43.734375)"/>
<path d="M0 0 C0.66 0.33 1.32 0.66 2 1 C2 5.29 2 9.58 2 14 C-1.73741613 15.86870807 -3.03827351 16.41702384 -7 16 C-9 14 -9 14 -9.1953125 10.9609375 C-9.17210937 9.77757812 -9.14890625 8.59421875 -9.125 7.375 C-9.10695313 6.18648437 -9.08890625 4.99796875 -9.0703125 3.7734375 C-9.04710937 2.85820313 -9.02390625 1.94296875 -9 1 C-6.01405576 -0.49297212 -3.29146376 -0.11755228 0 0 Z " fill="#0A0A0F" transform="translate(472,44)"/>
<path d="M0 0 C0.99 0 1.98 0 3 0 C3.06058594 1.21558594 3.12117188 2.43117187 3.18359375 3.68359375 C3.26798332 5.26824228 3.3526321 6.85287702 3.4375 8.4375 C3.47681641 9.23994141 3.51613281 10.04238281 3.55664062 10.86914062 C3.4054296 14.75239561 3.4054296 14.75239561 5 18 C8.02116333 17.8229564 10.99598232 17.38079097 14 17 C14 11.39 14 5.78 14 0 C14.99 0 15.98 0 17 0 C17 7.26 17 14.52 17 22 C16.01 22 15.02 22 14 22 C14 21.34 14 20.68 14 20 C13.46375 20.33 12.9275 20.66 12.375 21 C9.35724758 22.2706326 7.25007259 22.33854923 4 22 C1.828125 21.0859375 1.828125 21.0859375 0 19 C-0.50840416 15.76204255 -0.37428514 12.57976525 -0.25 9.3125 C-0.23195313 8.41982422 -0.21390625 7.52714844 -0.1953125 6.60742188 C-0.14817759 4.40386496 -0.08240657 2.20247399 0 0 Z " fill="#979798" transform="translate(437,41)"/>
<path d="M0 0 C0.99 0 1.98 0 3 0 C3 1.98 3 3.96 3 6 C4.65 6 6.3 6 8 6 C8 6.99 8 7.98 8 9 C6.35 9 4.7 9 3 9 C3.33 13.95 3.66 18.9 4 24 C5.32 24.33 6.64 24.66 8 25 C8 25.99 8 26.98 8 28 C4.88274982 28.34636113 3.439529 28.31212929 0.84375 26.46875 C-1.65308206 23.12553419 -1.44622316 20.24238664 -1.25 16.25 C-1.23195313 15.55261719 -1.21390625 14.85523438 -1.1953125 14.13671875 C-1.14838554 12.42388461 -1.07664605 10.71176176 -1 9 C-1.99 9 -2.98 9 -4 9 C-4 8.01 -4 7.02 -4 6 C-3.01 6 -2.02 6 -1 6 C-1.020625 5.195625 -1.04125 4.39125 -1.0625 3.5625 C-1 1 -1 1 0 0 Z " fill="#8C8C8D" transform="translate(424,35)"/>
<path d="M0 0 C1.2065625 0.0309375 1.2065625 0.0309375 2.4375 0.0625 C2.7675 1.7125 3.0975 3.3625 3.4375 5.0625 C1.7875 5.3925 0.1375 5.7225 -1.5625 6.0625 C-0.5725 5.7325 0.4175 5.4025 1.4375 5.0625 C1.4375 4.0725 1.4375 3.0825 1.4375 2.0625 C0.1175 2.0625 -1.2025 2.0625 -2.5625 2.0625 C-2.645 2.97 -2.7275 3.8775 -2.8125 4.8125 C-3.65498732 8.46327839 -4.74131618 9.69634583 -7.5625 12.0625 C-6.2425 12.7225 -4.9225 13.3825 -3.5625 14.0625 C-3.8925 15.0525 -4.2225 16.0425 -4.5625 17.0625 C-5.5525 17.0625 -6.5425 17.0625 -7.5625 17.0625 C-7.5625 16.4025 -7.5625 15.7425 -7.5625 15.0625 C-12.1825 15.0625 -16.8025 15.0625 -21.5625 15.0625 C-21.5625 14.4025 -21.5625 13.7425 -21.5625 13.0625 C-20.9025 12.7325 -20.2425 12.4025 -19.5625 12.0625 C-20.5525 11.7325 -21.5425 11.4025 -22.5625 11.0625 C-22.5625 10.4025 -22.5625 9.7425 -22.5625 9.0625 C-21.50289063 9.01351562 -20.44328125 8.96453125 -19.3515625 8.9140625 C-17.96351503 8.83903291 -16.57549549 8.76348515 -15.1875 8.6875 C-14.13949219 8.64109375 -14.13949219 8.64109375 -13.0703125 8.59375 C-8.86064173 8.46750502 -8.86064173 8.46750502 -5.5625 6.0625 C-4.87496699 4.40433216 -4.20688717 2.73790664 -3.5625 1.0625 C-2.5625 0.0625 -2.5625 0.0625 0 0 Z " fill="#1B1539" transform="translate(138.5625,26.9375)"/>
<path d="M0 0 C0.99 0.33 1.98 0.66 3 1 C2.360625 1.2475 1.72125 1.495 1.0625 1.75 C-1.13256807 2.780623 -1.13256807 2.780623 -1.60913086 4.75292969 C-2.04399864 7.25294408 -2.21320437 9.66730738 -2.31640625 12.203125 C-2.35830078 13.1828125 -2.40019531 14.1625 -2.44335938 15.171875 C-2.48267578 16.18765625 -2.52199219 17.2034375 -2.5625 18.25 C-2.60568359 19.28125 -2.64886719 20.3125 -2.69335938 21.375 C-2.79925682 23.9165387 -2.90133443 26.45817196 -3 29 C-5.62527189 29.05382106 -8.24944713 29.09358313 -10.875 29.125 C-11.62136719 29.14175781 -12.36773437 29.15851562 -13.13671875 29.17578125 C-15.09194461 29.1933959 -17.04742021 29.10320189 -19 29 C-19.66 28.34 -20.32 27.68 -21 27 C-23.31765729 26.28072705 -25.65095874 25.6090107 -28 25 C-28.042721 23.33388095 -28.04063832 21.66617115 -28 20 C-27 19 -27 19 -24.4375 18.9375 C-23.2309375 18.9684375 -23.2309375 18.9684375 -22 19 C-21.525625 20.134375 -21.05125 21.26875 -20.5625 22.4375 C-19.36377917 25.75740166 -19.36377917 25.75740166 -18 27 C-15.65012738 27.23527773 -13.29443961 27.41386417 -10.9375 27.5625 C-9.64714844 27.64628906 -8.35679688 27.73007812 -7.02734375 27.81640625 C-5.52880859 27.90728516 -5.52880859 27.90728516 -4 28 C-4.02094727 27.3294458 -4.04189453 26.6588916 -4.06347656 25.96801758 C-4.14686027 22.9163322 -4.19873016 19.86488683 -4.25 16.8125 C-4.28351562 15.75740234 -4.31703125 14.70230469 -4.3515625 13.61523438 C-4.45112665 5.72477519 -4.45112665 5.72477519 -1.984375 1.76171875 C-1.32953125 1.18035156 -0.6746875 0.59898438 0 0 Z " fill="#7353DB" transform="translate(39,8)"/>
<path d="M0 0 C2.46468444 1.84851333 2.96547258 2.7731055 3.4375 5.875 C2.90088229 9.70798361 1.71255676 11.28744324 -1 14 C-6.23344596 15.74448199 -11.87957435 15.67853621 -17.125 14 C-17.74375 13.67 -18.3625 13.34 -19 13 C-18.67 11.68 -18.34 10.36 -18 9 C-16.7315625 9.495 -16.7315625 9.495 -15.4375 10 C-11.73572148 11.07688102 -8.83569019 11.28948605 -5 11 C-4.01 10.34 -3.02 9.68 -2 9 C-1.71943824 6.19438238 -1.73289132 4.53421737 -3 2 C-2.01 2 -1.02 2 0 2 C0 1.34 0 0.68 0 0 Z " fill="#8C8D8F" transform="translate(415,48)"/>
<path d="M0 0 C2 2 2 2 2.0625 3.9375 C0.66335628 6.65348486 -1.15790976 7.40610619 -3.953125 8.46875 C-7.9094274 9.49557658 -12.2737053 9.86314735 -16 8 C-15.04254012 5.38874578 -14.34378312 4.20835341 -11.9375 2.75 C-7.92889271 1.7265258 -4.1136049 1.83868216 0 2 C0 1.34 0 0.68 0 0 Z " fill="#352B9B" transform="translate(68,40)"/>
<path d="M0 0 C1.2065625 0.0309375 1.2065625 0.0309375 2.4375 0.0625 C2.7675 1.0525 3.0975 2.0425 3.4375 3.0625 C11.3575 3.0625 19.2775 3.0625 27.4375 3.0625 C27.4375 3.7225 27.4375 4.3825 27.4375 5.0625 C26.71570557 5.08755615 25.99391113 5.1126123 25.25024414 5.13842773 C21.999965 5.25401302 18.75000312 5.37690774 15.5 5.5 C14.36369141 5.53931641 13.22738281 5.57863281 12.05664062 5.61914062 C10.97705078 5.66103516 9.89746094 5.70292969 8.78515625 5.74609375 C7.78492432 5.78275146 6.78469238 5.81940918 5.75415039 5.85717773 C3.47680812 5.80921841 3.47680812 5.80921841 2.4375 7.0625 C-0.0625 7.1875 -0.0625 7.1875 -2.5625 7.0625 C-3.5625 6.0625 -3.5625 6.0625 -3.6875 3.5625 C-3.51717518 0.15600356 -3.41884482 0.08338646 0 0 Z " fill="#4C3BA5" transform="translate(8.5625,44.9375)"/>
<path d="M0 0 C2.475 0.495 2.475 0.495 5 1 C5.38218767 2.65614657 5.71395102 4.32457024 6 6 C5 7 5 7 1.9375 7.0625 C0.968125 7.041875 -0.00125 7.02125 -1 7 C-1 6.34 -1 5.68 -1 5 C-8.92 5 -16.84 5 -25 5 C-25 4.34 -25 3.68 -25 3 C-17.08 3 -9.16 3 -1 3 C-0.67 2.01 -0.34 1.02 0 0 Z " fill="#513EAB" transform="translate(142,45)"/>
<path d="M0 0 C0.99 0 1.98 0 3 0 C3 7.26 3 14.52 3 22 C2.01 22 1.02 22 0 22 C0 21.34 0 20.68 0 20 C-0.99 19.67 -1.98 19.34 -3 19 C-2.67 18.34 -2.34 17.68 -2 17 C-1.34 17 -0.68 17 0 17 C0 11.39 0 5.78 0 0 Z " fill="#909091" transform="translate(451,41)"/>
<path d="M0 0 C2.625 1.4375 2.625 1.4375 4 4 C4.30266213 7.0318396 4.23343035 9.9654054 4 13 C3.34 13 2.68 13 2 13 C1.01 10.03 0.02 7.06 -1 4 C-7.31268603 3.62447835 -7.31268603 3.62447835 -13 6 C-13 4.68 -13 3.36 -13 2 C-8.74772683 -0.83484878 -4.98866229 -0.62868576 0 0 Z " fill="#ACACAD" transform="translate(506,41)"/>
<path d="M0 0 C0.99 0 1.98 0 3 0 C3 1.98 3 3.96 3 6 C4.65 6 6.3 6 8 6 C8 6.99 8 7.98 8 9 C6.02 9 4.04 9 2 9 C2 10.65 2 12.3 2 14 C1.01 14.495 1.01 14.495 0 15 C0 13.02 0 11.04 0 9 C-1.32 9 -2.64 9 -4 9 C-4 8.01 -4 7.02 -4 6 C-3.01 6 -2.02 6 -1 6 C-1.020625 5.195625 -1.04125 4.39125 -1.0625 3.5625 C-1 1 -1 1 0 0 Z " fill="#BDBDBE" transform="translate(424,35)"/>
<path d="M0 0 C0.33 0 0.66 0 1 0 C1.06058594 0.78246094 1.12117188 1.56492188 1.18359375 2.37109375 C1.26738281 3.38300781 1.35117187 4.39492188 1.4375 5.4375 C1.55931641 6.95150391 1.55931641 6.95150391 1.68359375 8.49609375 C1.73211468 10.93640779 1.73211468 10.93640779 3 12 C9.08468557 12.23376923 9.08468557 12.23376923 15 11 C15 12.65 15 14.3 15 16 C12.91781638 16.10832169 10.83400871 16.18573541 8.75 16.25 C7.00976562 16.31960937 7.00976562 16.31960937 5.234375 16.390625 C1.42333987 15.93035506 0.34488245 14.94851556 -2 12 C-1.34 12 -0.68 12 0 12 C0 8.04 0 4.08 0 0 Z " fill="#828284" transform="translate(462,47)"/>
<path d="M0 0 C0.99 0 1.98 0 3 0 C3 7.26 3 14.52 3 22 C2.01 22 1.02 22 0 22 C0 14.74 0 7.48 0 0 Z " fill="#9B9B9D" transform="translate(483,41)"/>
<path d="M0 0 C1.39456452 0.00667256 2.78911118 0.01863093 4.18359375 0.03515625 C4.89451172 0.03966797 5.60542969 0.04417969 6.33789062 0.04882812 C8.09899388 0.06064761 9.86005411 0.07858362 11.62109375 0.09765625 C11.62109375 0.42765625 11.62109375 0.75765625 11.62109375 1.09765625 C10.70585938 1.14664063 9.790625 1.195625 8.84765625 1.24609375 C7.65914062 1.32085937 6.470625 1.395625 5.24609375 1.47265625 C3.47105469 1.57707031 3.47105469 1.57707031 1.66015625 1.68359375 C-1.48452944 1.79982971 -1.48452944 1.79982971 -3.37890625 4.09765625 C-3.66765625 4.94328125 -3.95640625 5.78890625 -4.25390625 6.66015625 C-5.37890625 9.09765625 -5.37890625 9.09765625 -7.37890625 10.03515625 C-8.36890625 10.06609375 -8.36890625 10.06609375 -9.37890625 10.09765625 C-10.03890625 9.43765625 -10.69890625 8.77765625 -11.37890625 8.09765625 C-11.00390625 5.47265625 -11.00390625 5.47265625 -10.37890625 3.09765625 C-8.92484375 2.63359375 -8.92484375 2.63359375 -7.44140625 2.16015625 C-1.32549379 0.03830907 -1.32549379 0.03830907 0 0 Z " fill="#312C82" transform="translate(24.37890625,55.90234375)"/>
<path d="M0 0 C0.89589844 -0.01417969 1.79179687 -0.02835938 2.71484375 -0.04296875 C5.0625 0.1875 5.0625 0.1875 7.0625 2.1875 C7.0625 3.1775 7.0625 4.1675 7.0625 5.1875 C2.4425 5.1875 -2.1775 5.1875 -6.9375 5.1875 C-5.57655414 -0.25628343 -5.25083925 0.03766743 0 0 Z " fill="#0F0F13" transform="translate(309.9375,41.8125)"/>
<path d="M0 0 C0.96808594 -0.01417969 1.93617188 -0.02835938 2.93359375 -0.04296875 C5.5625 0.1875 5.5625 0.1875 8.5625 2.1875 C8.5625 3.1775 8.5625 4.1675 8.5625 5.1875 C7.22445313 5.04441406 7.22445313 5.04441406 5.859375 4.8984375 C4.68890625 4.78757812 3.5184375 4.67671875 2.3125 4.5625 C1.15234375 4.44648437 -0.0078125 4.33046875 -1.203125 4.2109375 C-4.37622091 4.18794405 -5.82067244 4.49044846 -8.4375 6.1875 C-8.0625 3.75 -8.0625 3.75 -7.4375 1.1875 C-4.84996844 -0.10626578 -2.88791015 0.01917603 0 0 Z " fill="#F1F0F1" transform="translate(407.4375,31.8125)"/>
<path d="M0 0 C0.66 0.33 1.32 0.66 2 1 C0 3.5625 0 3.5625 -3 6 C-5.76624705 6.05477717 -8.25398074 5.47946368 -11 5 C-13.21771064 5.85790183 -13.21771064 5.85790183 -15 7 C-16.32 7 -17.64 7 -19 7 C-18.67 5.02 -18.34 3.04 -18 1 C-17.34 1.165 -16.68 1.33 -16 1.5 C-10.11130772 2.48144871 -5.51625262 2.43364086 0 0 Z " fill="#3F34B2" transform="translate(67,46)"/>
<path d="M0 0 C1.2065625 0.0309375 1.2065625 0.0309375 2.4375 0.0625 C2.7675 1.7125 3.0975 3.3625 3.4375 5.0625 C1.7875 5.3925 0.1375 5.7225 -1.5625 6.0625 C-0.5725 5.7325 0.4175 5.4025 1.4375 5.0625 C1.4375 4.0725 1.4375 3.0825 1.4375 2.0625 C0.1175 2.0625 -1.2025 2.0625 -2.5625 2.0625 C-2.68625 3.01125 -2.81 3.96 -2.9375 4.9375 C-3.5625 8.0625 -3.5625 8.0625 -5.5625 10.0625 C-8.30735593 10.20757695 -10.94730543 10.24902423 -13.6875 10.1875 C-14.44160156 10.17847656 -15.19570312 10.16945313 -15.97265625 10.16015625 C-17.83607254 10.1365687 -19.69932593 10.10069719 -21.5625 10.0625 C-21.5625 9.7325 -21.5625 9.4025 -21.5625 9.0625 C-20.57507813 9.01351562 -19.58765625 8.96453125 -18.5703125 8.9140625 C-17.28898437 8.83929688 -16.00765625 8.76453125 -14.6875 8.6875 C-12.77324219 8.58308594 -12.77324219 8.58308594 -10.8203125 8.4765625 C-7.48188301 8.39008894 -7.48188301 8.39008894 -5.5625 6.0625 C-4.87496699 4.40433216 -4.20688717 2.73790664 -3.5625 1.0625 C-2.5625 0.0625 -2.5625 0.0625 0 0 Z " fill="#744FCD" transform="translate(138.5625,26.9375)"/>
<path d="M0 0 C1.2065625 0.0309375 1.2065625 0.0309375 2.4375 0.0625 C5.4375 6.6875 5.4375 6.6875 5.4375 10.0625 C4.7775 9.4025 4.1175 8.7425 3.4375 8.0625 C1.11984271 7.34322705 -1.21345874 6.6715107 -3.5625 6.0625 C-3.605221 4.39638095 -3.60313832 2.72867115 -3.5625 1.0625 C-2.5625 0.0625 -2.5625 0.0625 0 0 Z " fill="#7750CC" transform="translate(14.5625,26.9375)"/>
<path d="M0 0 C0.33 0 0.66 0 1 0 C1.62033314 8.87421022 1.62033314 8.87421022 -0.6875 13.0625 C-3.20795098 15.1742292 -4.75525016 15.72960418 -8 16 C-7.34 14.68 -6.68 13.36 -6 12 C-5.34 12 -4.68 12 -4 12 C-3.67 8.7 -3.34 5.4 -3 2 C-2.67 2 -2.34 2 -2 2 C-2 3.65 -2 5.3 -2 7 C-1.34 7 -0.68 7 0 7 C0 4.69 0 2.38 0 0 Z " fill="#79797B" transform="translate(510,47)"/>
<path d="M0 0 C1.21236328 0.01353516 1.21236328 0.01353516 2.44921875 0.02734375 C3.37154297 0.04474609 3.37154297 0.04474609 4.3125 0.0625 C4.3125 1.0525 4.3125 2.0425 4.3125 3.0625 C-0.09664783 4.16478696 -4.17132401 4.13904536 -8.6875 4.0625 C-8.3575 3.0725 -8.0275 2.0825 -7.6875 1.0625 C-4.80538698 0.10179566 -2.98899956 -0.04331883 0 0 Z " fill="#292280" transform="translate(63.6875,41.9375)"/>
<path d="M0 0 C0.79148437 0.18175781 1.58296875 0.36351562 2.3984375 0.55078125 C3.19507813 0.71964844 3.99171875 0.88851562 4.8125 1.0625 C5.45960938 1.32675781 6.10671875 1.59101562 6.7734375 1.86328125 C7.1034375 2.85328125 7.4334375 3.84328125 7.7734375 4.86328125 C6.35593187 4.74818464 4.93942581 4.62074467 3.5234375 4.48828125 C2.73453125 4.41867188 1.945625 4.3490625 1.1328125 4.27734375 C-1.3124395 3.84821012 -3.07493153 3.07727487 -5.2265625 1.86328125 C-2.2265625 -0.13671875 -2.2265625 -0.13671875 0 0 Z " fill="#C3C2C3" transform="translate(407.2265625,45.13671875)"/>
<path d="M0 0 C0.33 0 0.66 0 1 0 C1 6.6 1 13.2 1 20 C2.65 19.67 4.3 19.34 6 19 C6.33 19.99 6.66 20.98 7 22 C4.69 22 2.38 22 0 22 C0 14.74 0 7.48 0 0 Z " fill="#B9B9BA" transform="translate(243,41)"/>
<path d="M0 0 C0.33 0 0.66 0 1 0 C1 5.61 1 11.22 1 17 C0.01 17 -0.98 17 -2 17 C-2 14.03 -2 11.06 -2 8 C-1.67 8 -1.34 8 -1 8 C-0.67 5.36 -0.34 2.72 0 0 Z " fill="#9A9A9B" transform="translate(476,41)"/>
<path d="M0 0 C0.33 0.66 0.66 1.32 1 2 C1.66 2 2.32 2 3 2 C3 4.97 3 7.94 3 11 C1.68 10.67 0.36 10.34 -1 10 C-1.125 3.375 -1.125 3.375 0 0 Z " fill="#858587" transform="translate(492,45)"/>
<path d="M0 0 C0 0.99 0 1.98 0 3 C-1.98 3 -3.96 3 -6 3 C-6 4.65 -6 6.3 -6 8 C-6.99 8.495 -6.99 8.495 -8 9 C-8 6.36 -8 3.72 -8 1 C-5.29120665 -0.35439668 -2.99066732 -0.06501451 0 0 Z " fill="#C9C8C9" transform="translate(432,41)"/>
<path d="M0 0 C0.99 0 1.98 0 3 0 C3 3.3 3 6.6 3 10 C2.01 10.33 1.02 10.66 0 11 C0 7.37 0 3.74 0 0 Z " fill="#B9B8B9" transform="translate(451,41)"/>
<path d="M0 0 C1.03125 0.00322266 2.0625 0.00644531 3.125 0.00976562 C4.74535156 0.02233398 4.74535156 0.02233398 6.3984375 0.03515625 C8.03039062 0.04192383 8.03039062 0.04192383 9.6953125 0.04882812 C12.38807539 0.06063849 15.08072938 0.07710847 17.7734375 0.09765625 C17.7734375 0.42765625 17.7734375 0.75765625 17.7734375 1.09765625 C16.80519043 1.11953003 16.80519043 1.11953003 15.81738281 1.1418457 C12.88547177 1.21643495 9.95468585 1.31305865 7.0234375 1.41015625 C6.00765625 1.43271484 4.991875 1.45527344 3.9453125 1.47851562 C2.47578125 1.53168945 2.47578125 1.53168945 0.9765625 1.5859375 C0.07583008 1.61212158 -0.82490234 1.63830566 -1.75292969 1.6652832 C-4.6277268 2.16777686 -6.05461248 3.19387557 -8.2265625 5.09765625 C-7.8515625 3.16015625 -7.8515625 3.16015625 -7.2265625 1.09765625 C-4.66933021 -0.1809599 -2.85919148 -0.01570984 0 0 Z " fill="#0E0720" transform="translate(78.2265625,32.90234375)"/>
<path d="M0 0 C5.94 0.33 11.88 0.66 18 1 C18 1.33 18 1.66 18 2 C17.03578125 2.06058594 16.0715625 2.12117188 15.078125 2.18359375 C13.81484375 2.26738281 12.5515625 2.35117187 11.25 2.4375 C9.99703125 2.51871094 8.7440625 2.59992187 7.453125 2.68359375 C4.81682447 2.92515522 2.51962706 3.24283934 0 4 C0 2.68 0 1.36 0 0 Z " fill="#5A41C1" transform="translate(18,40)"/>
<path d="M0 0 C0.33 0 0.66 0 1 0 C1.04898437 0.77085938 1.09796875 1.54171875 1.1484375 2.3359375 C1.22320312 3.33882812 1.29796875 4.34171875 1.375 5.375 C1.44460938 6.37273438 1.51421875 7.37046875 1.5859375 8.3984375 C1.76363964 11.15508879 1.76363964 11.15508879 4 13 C4 13.99 4 14.98 4 16 C-0.875 14.25 -0.875 14.25 -2 12 C-1.34 12 -0.68 12 0 12 C0 8.04 0 4.08 0 0 Z " fill="#6B6B6D" transform="translate(462,47)"/>
<path d="M0 0 C1.39456452 0.00667256 2.78911118 0.01863093 4.18359375 0.03515625 C4.89451172 0.03966797 5.60542969 0.04417969 6.33789062 0.04882812 C8.09899388 0.06064761 9.86005411 0.07858362 11.62109375 0.09765625 C11.62109375 0.42765625 11.62109375 0.75765625 11.62109375 1.09765625 C10.74066406 1.13503906 9.86023438 1.17242187 8.953125 1.2109375 C7.79167969 1.27667969 6.63023438 1.34242187 5.43359375 1.41015625 C4.28503906 1.46816406 3.13648438 1.52617188 1.953125 1.5859375 C-1.52570729 2.12020131 -3.52422263 3.09238885 -6.37890625 5.09765625 C-7.36890625 4.43765625 -8.35890625 3.77765625 -9.37890625 3.09765625 C-8.57453125 2.78828125 -7.77015625 2.47890625 -6.94140625 2.16015625 C-1.86136239 0.0537966 -1.86136239 0.0537966 0 0 Z " fill="#4D41C2" transform="translate(24.37890625,55.90234375)"/>
<path d="M0 0 C-0.33 0.99 -0.66 1.98 -1 3 C-1.99 3 -2.98 3 -4 3 C-4 2.34 -4 1.68 -4 1 C-8.62 1 -13.24 1 -18 1 C-18 0.67 -18 0.34 -18 0 C-15.75067773 -0.1954625 -13.50049858 -0.38108226 -11.25 -0.5625 C-9.99703125 -0.66691406 -8.7440625 -0.77132812 -7.453125 -0.87890625 C-4.60547636 -0.97876723 -2.65713933 -0.90584295 0 0 Z " fill="#5D47BF" transform="translate(135,41)"/>
<path d="M0 0 C2.10633718 1.70828921 2.93801608 2.52148416 3.29296875 5.26171875 C3.25816406 6.06222656 3.22335937 6.86273438 3.1875 7.6875 C3.16042969 8.49574219 3.13335937 9.30398437 3.10546875 10.13671875 C3.07066406 10.75160156 3.03585937 11.36648437 3 12 C2.34 12 1.68 12 1 12 C-0.26237731 9.47524538 -0.09856404 7.68799534 -0.0625 4.875 C-0.05347656 3.96492188 -0.04445313 3.05484375 -0.03515625 2.1171875 C-0.02355469 1.41851562 -0.01195312 0.71984375 0 0 Z " fill="#9C9D9F" transform="translate(459,47)"/>
<path d="M0 0 C0.99 0 1.98 0 3 0 C3 2.64 3 5.28 3 8 C2.01 8.33 1.02 8.66 0 9 C0 6.03 0 3.06 0 0 Z " fill="#D5D5D6" transform="translate(474,33)"/>
<path d="M0 0 C1.98 0.66 3.96 1.32 6 2 C6 3.32 6 4.64 6 6 C3.69 5.34 1.38 4.68 -1 4 C-0.67 2.68 -0.34 1.36 0 0 Z " fill="#8E8E90" transform="translate(397,57)"/>
<path d="M0 0 C1.65 0 3.3 0 5 0 C5 0.99 5 1.98 5 3 C4.34 3 3.68 3 3 3 C3 3.66 3 4.32 3 5 C1.68 5.33 0.36 5.66 -1 6 C-0.67 4.02 -0.34 2.04 0 0 Z " fill="#4134B2" transform="translate(70,42)"/>
<path d="M0 0 C1.98 0 3.96 0 6 0 C6 1.65 6 3.3 6 5 C4.125 4.75 4.125 4.75 2 4 C0.75 1.9375 0.75 1.9375 0 0 Z " fill="#332F81" transform="translate(132,61)"/>
<path d="M0 0 C0.33 0.66 0.66 1.32 1 2 C1.66 2.33 2.32 2.66 3 3 C2.34 3 1.68 3 1 3 C0.34 4.98 -0.32 6.96 -1 9 C-1.33 9 -1.66 9 -2 9 C-2.125 5.625 -2.125 5.625 -2 2 C-1.34 1.34 -0.68 0.68 0 0 Z " fill="#B0B0B1" transform="translate(462,42)"/>
<path d="M0 0 C0.99 0.33 1.98 0.66 3 1 C0.58443874 4.19199167 -1.68003538 6.74716687 -5 9 C-5.66 8.67 -6.32 8.34 -7 8 C-5.625 6.5 -5.625 6.5 -4 5 C-3.34 5 -2.68 5 -2 5 C-2 4.34 -2 3.68 -2 3 C-1.34 3 -0.68 3 0 3 C0 2.01 0 1.02 0 0 Z " fill="#4939C4" transform="translate(75,42)"/>
<path d="M0 0 C2.475 0.99 2.475 0.99 5 2 C5 2.99 5 3.98 5 5 C2.03 4.505 2.03 4.505 -1 4 C-0.67 2.68 -0.34 1.36 0 0 Z " fill="#CACACB" transform="translate(411,32)"/>
<path d="M0 0 C0.66 0.33 1.32 0.66 2 1 C2 3.31 2 5.62 2 8 C1.34 8 0.68 8 0 8 C0 6.68 0 5.36 0 4 C-0.99 3.67 -1.98 3.34 -3 3 C-2.01 2.67 -1.02 2.34 0 2 C0 1.34 0 0.68 0 0 Z " fill="#A2A2A3" transform="translate(415,48)"/>
<path d="M0 0 C0.99 0 1.98 0 3 0 C3 2.97 3 5.94 3 9 C2.34 8.34 1.68 7.68 1 7 C1 5.68 1 4.36 1 3 C0.34 2.67 -0.32 2.34 -1 2 C-0.67 1.34 -0.34 0.68 0 0 Z " fill="#B6B5B7" transform="translate(473,42)"/>
<path d="M0 0 C1.98 0.495 1.98 0.495 4 1 C3.67 2.32 3.34 3.64 3 5 C1.68 5 0.36 5 -1 5 C-0.67 3.35 -0.34 1.7 0 0 Z " fill="#432D77" transform="translate(14,27)"/>
<path d="M0 0 C1.98 0 3.96 0 6 0 C6 0.99 6 1.98 6 3 C4.02 3 2.04 3 0 3 C0 2.01 0 1.02 0 0 Z " fill="#9A9B9B" transform="translate(403,60)"/>
<path d="M0 0 C0.66 0.33 1.32 0.66 2 1 C0.92598892 3.91517292 0.22189824 5.77810176 -2 8 C-2.99 7.67 -3.98 7.34 -5 7 C-4.0409375 6.1028125 -4.0409375 6.1028125 -3.0625 5.1875 C-0.79689611 3.09189663 -0.79689611 3.09189663 0 0 Z " fill="#423FB2" transform="translate(116,76)"/>
<path d="M0 0 C2.475 0.99 2.475 0.99 5 2 C5 2.66 5 3.32 5 4 C3.35 4 1.7 4 0 4 C0 2.68 0 1.36 0 0 Z " fill="#BCBBBC" transform="translate(410,46)"/>
<path d="M0 0 C3.63 0 7.26 0 11 0 C11 0.99 11 1.98 11 3 C7.37 2.34 3.74 1.68 0 1 C0 0.67 0 0.34 0 0 Z " fill="#0D0D13" transform="translate(252,42)"/>
<path d="M0 0 C1.32 0 2.64 0 4 0 C4 1.65 4 3.3 4 5 C2.35 5 0.7 5 -1 5 C-0.67 3.35 -0.34 1.7 0 0 Z " fill="#3B2768" transform="translate(136,29)"/>
<path d="M0 0 C0.99 0.33 1.98 0.66 3 1 C2.360625 1.2475 1.72125 1.495 1.0625 1.75 C-1.18741541 2.81562433 -1.18741541 2.81562433 -1.75 5.125 C-1.8325 5.74375 -1.915 6.3625 -2 7 C-2.66 7 -3.32 7 -4 7 C-2.92598892 4.08482708 -2.22189824 2.22189824 0 0 Z " fill="#6947BA" transform="translate(39,8)"/>
</svg>
